<svg width="52" height="52" viewBox="0 0 52 52" fill="none" xmlns="http://www.w3.org/2000/svg">
<path d="M49.9354 13.9035L26.3729 1.71597C26.2578 1.65595 26.1299 1.6246 26 1.6246C25.8701 1.6246 25.7422 1.65595 25.6271 1.71597L2.06456 13.9035C1.93218 13.9719 1.82115 14.0753 1.74363 14.2026C1.6661 14.3298 1.62507 14.476 1.625 14.625C1.62741 14.6597 1.6323 14.6942 1.63962 14.7282H1.6315L4.8815 39.9157C4.89905 40.0515 4.95064 40.1806 5.03148 40.2912C5.11232 40.4017 5.21978 40.49 5.34389 40.5479C5.468 40.6058 5.60472 40.6313 5.74136 40.6222C5.878 40.6131 6.01011 40.5696 6.12544 40.4958L15.0524 34.7831L25.3264 50.0167C25.4008 50.1269 25.5011 50.2172 25.6186 50.2797C25.736 50.3421 25.867 50.3748 26 50.3748C26.133 50.3748 26.264 50.3421 26.3814 50.2797C26.4989 50.2172 26.5992 50.1269 26.6736 50.0167L36.9476 34.7831L45.8746 40.4966C45.9899 40.5704 46.122 40.6139 46.2586 40.623C46.3953 40.6322 46.532 40.6066 46.6561 40.5487C46.7802 40.4908 46.8877 40.4025 46.9685 40.292C47.0494 40.1814 47.101 40.0523 47.1185 39.9165L50.3685 14.729H50.3604C50.3677 14.6947 50.3726 14.6599 50.375 14.625C50.3749 14.476 50.3339 14.3298 50.2564 14.2026C50.1788 14.0753 50.0678 13.9719 49.9354 13.9035ZM38.0006 19.6909L16.1769 8.43291L20.3938 6.25622L42.2134 17.5118L38.0006 19.6909ZM36.2302 20.6058L32.0125 22.7873L10.1944 11.5277L14.4073 9.34859L36.2302 20.6058ZM47.1104 16.8082L36.4869 32.5593L27.625 26.8872L47.1104 16.8082ZM26 3.35234L47.7937 14.625L43.9831 16.5961L22.1634 5.33647L26 3.35234ZM8.42481 12.4434L30.2445 23.7022L26 25.8976L4.20631 14.625L8.42481 12.4434ZM24.375 26.8872L15.5131 32.5593L4.88963 16.8082L24.375 26.8872ZM6.32937 38.4369L3.68225 17.9237L14.144 33.436L6.32937 38.4369ZM26 48.1089L16.4214 33.9072L26 27.7769L35.5786 33.9072L26 48.1089ZM45.6706 38.4402L37.856 33.4392L48.3177 17.9237L45.6706 38.4402Z" fill="#788E8B"/>
</svg>
