<svg width="61" height="61" viewBox="0 0 61 61" fill="none" xmlns="http://www.w3.org/2000/svg">
<path d="M25.9601 2.20705L27.0401 3.89108C30.9903 1.41654 36.0071 1.41654 39.9573 3.89108L41.0373 2.20705C36.4424 -0.735623 30.555 -0.735623 25.9601 2.20705Z" fill="#788E8B"/>
<path d="M21.4999 13.9992H19.4999C19.497 15.8493 19.8635 17.6815 20.5779 19.3883L22.4239 18.6163C21.8114 17.1542 21.4973 15.5845 21.4999 13.9992Z" fill="#788E8B"/>
<path d="M38.1123 25.0764C36.6519 25.6887 35.0838 26.0024 33.5002 25.9994V27.9995C35.3494 28.003 37.1807 27.6368 38.8863 26.9224L38.1123 25.0764Z" fill="#788E8B"/>
<path d="M45.5004 13.9992C45.5032 15.5833 45.1893 17.1521 44.5774 18.6133L46.4234 19.3853C47.1377 17.6796 47.5038 15.8483 47.5004 13.9992H45.5004Z" fill="#788E8B"/>
<path d="M33.5002 3.99905C27.9772 3.99905 23.5 8.47625 23.5 13.9992C23.5 19.5222 27.9772 23.9994 33.5002 23.9994C39.0206 23.9933 43.4943 19.5197 43.5003 13.9992C43.5003 8.47638 39.0231 3.99905 33.5002 3.99905ZM33.5002 21.9993C29.0818 21.9993 25.5 18.4175 25.5 13.9992C25.5 9.5809 29.0818 5.99909 33.5002 5.99909C37.9185 5.99909 41.5003 9.5809 41.5003 13.9992C41.4953 18.4155 37.9165 21.9945 33.5002 21.9993Z" fill="#788E8B"/>
<path d="M60.2076 41.2927L56.9146 37.9996L60.2076 34.7066C60.598 34.3161 60.598 33.683 60.2076 33.2925L47.2074 20.2923C46.8169 19.9019 46.1839 19.9019 45.7934 20.2923L33.0002 33.0855L19.2069 19.2923C18.8164 18.9019 18.1834 18.9019 17.7929 19.2923L4.7927 32.2925C4.40232 32.683 4.40232 33.316 4.7927 33.7065L12.0858 40.9997H0.499634V42.9997H13.4998C13.6354 43.0001 13.7695 42.9724 13.8939 42.9187L20.705 39.9996H35.5002V43.9997H24.5C23.9478 43.9997 23.5 44.4473 23.5 44.9997C23.5 45.3899 23.7269 45.7444 24.081 45.9077L37.0812 51.9078C37.4084 52.0566 37.7901 52.0185 38.0812 51.8078L55.4005 39.3096L58.0336 41.9427L38.1302 59H32.6792L13.8459 52.0618C13.7351 52.021 13.618 52 13.4998 51.9998H0.499634V53.9999H13.3208L32.1542 60.938C32.2649 60.979 32.382 60.9999 32.5002 61H38.5003C38.7389 61.0002 38.9695 60.9147 39.1503 60.759L60.1506 42.7587C60.57 42.3993 60.6187 41.7681 60.2594 41.3487C60.2429 41.3294 60.2256 41.3107 60.2076 41.2927ZM20.5 37.9996C20.3645 37.9992 20.2303 38.0267 20.106 38.0806L19.863 38.1806C20.8503 35.6183 23.728 34.3416 26.2903 35.329C27.5376 35.8096 28.5387 36.7722 29.0681 37.9996H20.5ZM31.2051 37.9996C30.3296 35.0281 27.5978 32.991 24.5 32.9995C20.9612 33.0208 17.9874 35.6638 17.5509 39.1756L14.4279 40.5137L6.91374 32.9995L18.4999 21.4133L35.0862 37.9996H31.2051ZM37.3892 49.8468L29.0531 45.9997H36.5002C37.0525 45.9997 37.5002 45.552 37.5002 44.9997V40.4137L42.9303 45.8437L37.3892 49.8468ZM37.5942 37.6796C37.973 35.545 39.8323 33.9919 42.0003 33.9996C44.4801 33.9951 46.494 36.0016 46.4986 38.4814C46.5026 40.6512 44.9544 42.5133 42.8203 42.9057L37.5942 37.6796ZM44.4434 44.5267C44.8446 44.364 45.2281 44.161 45.589 43.9218L44.5724 44.6557L44.4434 44.5267ZM54.8515 37.2346L46.0394 43.5997C48.8468 41.3624 49.3091 37.2727 47.0716 34.4653C44.8344 31.6579 40.7447 31.1956 37.9372 33.433C37.0684 34.1254 36.3915 35.0291 35.9711 36.0576L34.4141 34.4996L46.5003 22.4134L58.0865 33.9996L54.8515 37.2346Z" fill="#788E8B"/>
</svg>
