<svg width="52" height="52" viewBox="0 0 52 52" fill="none" xmlns="http://www.w3.org/2000/svg">
<path d="M51.2954 12.1433L47.6651 5.85414V2.60078C47.6651 2.59818 47.6642 2.59645 47.6642 2.59472C47.6642 2.53579 47.6417 2.47859 47.6287 2.41966C47.6165 2.36506 47.6148 2.30699 47.5931 2.2576C47.5923 2.255 47.5923 2.25326 47.5914 2.25066C47.5741 2.21253 47.5429 2.18653 47.5212 2.15187C47.4839 2.09207 47.451 2.03054 47.4016 1.982C47.36 1.94127 47.308 1.91787 47.2604 1.88667C47.2144 1.85721 47.1746 1.82081 47.1234 1.80001C47.0584 1.77401 46.9882 1.76881 46.918 1.75841C46.8764 1.75235 46.8409 1.73415 46.7984 1.73415C46.7958 1.73415 46.7941 1.73588 46.7915 1.73588C46.7412 1.73588 46.6918 1.75668 46.6416 1.76621C46.5783 1.77834 46.5124 1.78181 46.4552 1.80694C46.4527 1.80781 46.4509 1.80781 46.4483 1.80868L30.5819 8.81371C30.5568 8.76605 30.5273 8.72185 30.5005 8.67505C30.4779 8.63605 30.4545 8.59878 30.4311 8.56065C30.2925 8.33446 30.1408 8.11867 29.9701 7.91674C29.9501 7.89334 29.9285 7.87254 29.9085 7.84914C29.7291 7.64462 29.5367 7.45136 29.3279 7.27629C29.3218 7.27196 29.3175 7.26589 29.3114 7.26156C29.1017 7.08737 28.8746 6.93484 28.6398 6.79444C28.6068 6.77538 28.5756 6.75371 28.5427 6.73551C28.3148 6.60725 28.0747 6.49805 27.8277 6.40446C27.7827 6.38712 27.7385 6.37066 27.6925 6.35506C27.4438 6.26926 27.1882 6.2008 26.9238 6.154C26.9039 6.15053 26.8857 6.14273 26.8658 6.13927V3.46742C26.8658 2.98817 26.4784 2.60078 25.9991 2.60078C25.5199 2.60078 25.1325 2.98817 25.1325 3.46742V6.14533C22.6773 6.55959 20.7993 8.69498 20.7993 11.2672C20.7993 11.7577 20.8721 12.23 20.9995 12.6798L4.8783 19.1284C4.8757 19.1293 4.87397 19.1319 4.87137 19.1328C4.78731 19.1674 4.71538 19.222 4.64691 19.2792C4.62871 19.294 4.60445 19.3026 4.58798 19.3191C4.54032 19.3668 4.50998 19.4292 4.47358 19.4872C4.45105 19.5236 4.41899 19.554 4.40165 19.5938C4.39039 19.6189 4.39212 19.6493 4.38345 19.6761C4.35745 19.7576 4.33406 19.8399 4.33319 19.9266C4.33492 19.9283 4.33319 19.9309 4.33319 19.9335V23.3646L0.702843 29.6537C0.279924 30.3869 0.0580647 31.1842 0.0164661 31.9885C0.0129996 32.0153 0 32.0387 0 32.0665C0 32.0803 0.0069331 32.0925 0.00779974 32.1063C-0.019066 33.0458 0.207993 33.9904 0.701977 34.8475C1.64141 36.4733 3.32269 37.444 5.19983 37.444C7.07696 37.444 8.75824 36.4733 9.69681 34.8475C10.1917 33.9904 10.4179 33.0458 10.391 32.1063C10.3927 32.0925 10.3997 32.0803 10.3997 32.0665C10.3997 32.0387 10.3867 32.0153 10.3841 31.9885C10.3425 31.1851 10.1206 30.3869 9.69768 29.6537L6.06646 23.3646V20.5203L21.7457 14.2484C21.9857 14.589 22.2657 14.8992 22.5785 15.1731C22.5811 15.1757 22.5837 15.1774 22.5863 15.18C22.8862 15.4418 23.2138 15.6714 23.5673 15.8595C23.6115 15.8829 23.6583 15.9028 23.7034 15.9253C23.8265 15.986 23.9504 16.0432 24.0787 16.0943C24.1454 16.1212 24.2121 16.1446 24.2797 16.168C24.3933 16.2079 24.5085 16.2443 24.6264 16.2763C24.6974 16.2954 24.7676 16.3145 24.8396 16.3309C24.9366 16.3535 25.0346 16.3708 25.1334 16.3881V37.2654H19.9335V41.5986C15.6324 41.5986 12.1338 45.0972 12.1338 49.3984V50.265H39.8662V49.3984C39.8662 45.0972 36.3676 41.5986 32.0665 41.5986V37.2654H26.8666V16.3951C26.8866 16.3916 26.9048 16.3838 26.9247 16.3795C27.1882 16.3318 27.4447 16.2642 27.6934 16.1784C27.7393 16.1628 27.7835 16.1463 27.8286 16.129C28.0765 16.0354 28.3165 15.9262 28.5444 15.7979C28.5774 15.7797 28.6086 15.7589 28.6406 15.7399C28.8764 15.6004 29.1034 15.447 29.3132 15.2728C29.3192 15.2684 29.3236 15.2624 29.3296 15.258C29.5385 15.083 29.7309 14.8906 29.9103 14.6852C29.9302 14.6618 29.9519 14.641 29.9718 14.6176C30.1417 14.4157 30.2942 14.1999 30.4329 13.9737C30.4563 13.9355 30.4796 13.8983 30.5022 13.8593C30.633 13.6339 30.7457 13.3974 30.8419 13.1521C30.8584 13.1096 30.874 13.0663 30.8896 13.023C30.9806 12.7708 31.0551 12.5117 31.1062 12.2439C31.1132 12.2101 31.1158 12.1745 31.1218 12.1399C31.1678 11.8556 31.199 11.5653 31.199 11.2672C31.199 10.9942 31.1712 10.7281 31.1305 10.4664L45.9318 3.93107V5.85414L42.3015 12.1425C41.3629 13.7691 41.3629 15.7104 42.3015 17.3362C43.24 18.962 44.9213 19.9327 46.7984 19.9327C48.6756 19.9327 50.3569 18.962 51.2954 17.3362C52.234 15.7104 52.234 13.77 51.2954 12.1433ZM5.19983 35.7107C3.94927 35.7107 2.82871 35.0642 2.20386 33.9809C2.01147 33.6481 1.88494 33.2936 1.81127 32.9331H8.58838C8.51472 33.2936 8.38819 33.6481 8.19579 33.9809C7.57095 35.0642 6.45039 35.7107 5.19983 35.7107ZM8.49132 31.1998H1.90834C1.98373 30.9676 2.07733 30.7388 2.20386 30.5204L5.19983 25.3292L8.19579 30.5195C8.32232 30.7388 8.41592 30.9676 8.49132 31.1998ZM38.0705 48.5326H13.9277C14.3489 45.5964 16.8812 43.3328 19.9327 43.3328H32.0656C35.117 43.3328 37.6485 45.5964 38.0705 48.5326ZM30.3323 41.5995H21.6659V38.9996H30.3323V41.5995ZM25.9991 7.80061C27.4239 7.80061 28.6476 8.66465 29.1806 9.89614L29.2863 10.2307C29.3426 10.4101 29.3825 10.5739 29.412 10.7333C29.4388 10.9084 29.4657 11.0843 29.4657 11.2672C29.4657 13.179 27.9109 14.7337 25.9991 14.7337C25.7868 14.7337 25.5814 14.7077 25.3795 14.6713C25.3223 14.6609 25.2651 14.6479 25.2088 14.6349C25.0528 14.5985 24.9002 14.55 24.7529 14.4928C24.7078 14.4755 24.6619 14.4625 24.6177 14.4434C24.4487 14.3697 24.2884 14.2796 24.1341 14.1808C24.0596 14.1323 23.9894 14.0777 23.9192 14.0239C23.8455 13.9685 23.7753 13.9095 23.706 13.848C23.6202 13.77 23.5344 13.692 23.4556 13.6054C23.4408 13.5889 23.4278 13.5707 23.414 13.5542C23.2138 13.3246 23.0387 13.068 22.8992 12.7838L22.7856 12.5524C22.6262 12.1537 22.5326 11.7213 22.5326 11.2672C22.5326 9.35536 24.0873 7.80061 25.9991 7.80061ZM46.7984 7.81968L49.7944 13.0091C49.953 13.2838 50.07 13.5716 50.1489 13.8662H43.448C43.526 13.5716 43.6439 13.2838 43.8025 13.0091L46.7984 7.81968ZM46.7984 18.2003C45.5479 18.2003 44.4273 17.5538 43.8025 16.4705C43.6413 16.1923 43.5234 15.8993 43.4454 15.6004H50.1515C50.0735 15.8993 49.9556 16.1923 49.7944 16.4705C49.1696 17.5538 48.049 18.2003 46.7984 18.2003Z" fill="#788E8B"/>
</svg>
