<svg width="56" height="57" viewBox="0 0 56 57" fill="none" xmlns="http://www.w3.org/2000/svg">
<path d="M13.125 34.7847C8.30025 34.7847 4.375 38.8277 4.375 43.7972C4.375 48.7668 8.30025 52.8098 13.125 52.8098C17.9497 52.8098 21.875 48.7668 21.875 43.7972C21.875 38.8277 17.9497 34.7847 13.125 34.7847ZM13.125 51.0073C9.26538 51.0073 6.125 47.7727 6.125 43.7972C6.125 39.8218 9.26538 36.5872 13.125 36.5872C16.9846 36.5872 20.125 39.8218 20.125 43.7972C20.125 47.7727 16.9846 51.0073 13.125 51.0073Z" fill="#788E8B"/>
<path d="M12.25 43.4248L10.7563 44.9635L11.9936 46.238L14 44.1712V38.3896H12.25V43.4248Z" fill="#788E8B"/>
<path d="M52.5 4.14212H49.875V3.24087C49.875 1.7502 48.6973 0.537109 47.25 0.537109C45.8027 0.537109 44.625 1.7502 44.625 3.24087V4.14212H42.875V3.24087C42.875 1.7502 41.6973 0.537109 40.25 0.537109C38.8027 0.537109 37.625 1.7502 37.625 3.24087V4.14212H28.875V3.24087C28.875 1.7502 27.6973 0.537109 26.25 0.537109C24.8027 0.537109 23.625 1.7502 23.625 3.24087V4.14212H21.875V3.24087C21.875 1.7502 20.6973 0.537109 19.25 0.537109C17.8027 0.537109 16.625 1.7502 16.625 3.24087V4.14212H14C12.5527 4.14212 11.375 5.35521 11.375 6.84588V23.9697H7.875V29.3772H9.625V31.7115C4.57187 33.267 0.875 38.0932 0.875 43.7973C0.875 50.7549 6.37 56.4148 13.125 56.4148C19.88 56.4148 25.375 50.7549 25.375 43.7973H23.625C23.625 49.7608 18.9149 54.6123 13.125 54.6123C7.33512 54.6123 2.625 49.7608 2.625 43.7973C2.625 37.8337 7.33512 32.9822 13.125 32.9822C18.0189 32.9822 22.2215 36.4034 23.3441 41.2999L23.5034 41.9947H52.5C53.9473 41.9947 55.125 40.7817 55.125 39.291V6.84588C55.125 5.35521 53.9473 4.14212 52.5 4.14212ZM46.375 3.24087C46.375 2.74338 46.7679 2.33962 47.25 2.33962C47.7321 2.33962 48.125 2.74338 48.125 3.24087L48.1259 7.74713H46.375V3.24087ZM39.375 3.24087C39.375 2.74338 39.7679 2.33962 40.25 2.33962C40.7321 2.33962 41.125 2.74338 41.125 3.24087L41.1259 7.74713H39.375V3.24087ZM25.375 3.24087C25.375 2.74338 25.7679 2.33962 26.25 2.33962C26.7321 2.33962 27.125 2.74338 27.125 3.24087L27.1259 7.74713H25.375V3.24087ZM18.375 3.24087C18.375 2.74338 18.7679 2.33962 19.25 2.33962C19.7321 2.33962 20.125 2.74338 20.125 3.24087L20.1259 7.74713H18.375V3.24087ZM9.625 25.7722H16.625V27.5747H9.625V25.7722ZM14.875 31.3149C14.3019 31.2311 13.7191 31.1797 13.125 31.1797C12.5291 31.1797 11.9481 31.2383 11.375 31.3239V29.3772H14.875V31.3149ZM53.375 39.291C53.375 39.7885 52.9821 40.1922 52.5 40.1922H24.8684C24.6881 39.5668 24.4615 38.9665 24.1973 38.3897H49.875V14.9572H16.625V22.1095H18.375V16.7597H48.125V36.5872H23.191C21.6151 34.244 19.3016 32.5226 16.625 31.7078V29.3772H18.375V23.9697H13.125V13.1547H53.375V39.291ZM53.375 11.3521H13.125V6.84588C13.125 6.34839 13.5179 5.94463 14 5.94463H16.625V7.74713C16.625 8.74122 17.4099 9.54964 18.375 9.54964H20.125C21.0901 9.54964 21.875 8.74122 21.875 7.74713V5.94463H23.625V7.74713C23.625 8.74122 24.4099 9.54964 25.375 9.54964H27.125C28.0901 9.54964 28.875 8.74122 28.875 7.74713V5.94463H37.625V7.74713C37.625 8.74122 38.4099 9.54964 39.375 9.54964H41.125C42.0901 9.54964 42.875 8.74122 42.875 7.74713V5.94463H44.625V7.74713C44.625 8.74122 45.4099 9.54964 46.375 9.54964H48.125C49.0901 9.54964 49.875 8.74122 49.875 7.74713V5.94463H52.5C52.9821 5.94463 53.375 6.34839 53.375 6.84588V11.3521Z" fill="#788E8B"/>
</svg>
