<svg width="56" height="56" viewBox="0 0 56 56" fill="none" xmlns="http://www.w3.org/2000/svg">
<path d="M32.6049 52.4209C32.0445 52.1961 31.4075 52.4684 31.1827 53.0292C30.9949 53.4977 30.5187 53.8124 29.9978 53.8124H26.0022C25.4813 53.8124 25.0051 53.4977 24.8173 53.0292C24.5925 52.4684 23.9559 52.1966 23.3951 52.4209C22.8344 52.6457 22.5621 53.2824 22.7869 53.8431C23.3122 55.1534 24.5742 55.9999 26.0022 55.9999H29.9978C31.4258 55.9999 32.6878 55.1534 33.213 53.8431C33.4379 53.2824 33.1656 52.6457 32.6049 52.4209Z" fill="#EEA093"/>
<path d="M45.4498 46.7865C45.1527 45.2548 44.2091 43.9287 42.8601 43.1456C43.1055 42.9452 43.3356 42.7236 43.5456 42.4796C44.5815 41.2762 45.0402 39.6853 44.8038 38.1152C44.42 35.5642 43.3343 33.1805 41.664 31.222C40.4134 29.7556 38.8763 28.5739 37.1559 27.7435C39.2613 25.4976 40.5528 22.48 40.5528 19.166C40.5527 13.431 36.6866 8.58189 31.4238 7.08794C32.1406 6.23208 32.5317 5.16283 32.5317 4.03298C32.5319 1.80917 30.7226 0 28.4989 0C28.4988 0 28.4987 0 28.4985 0C27.6009 0 26.7601 0.291922 26.1313 0.821844C25.4364 1.40744 25.0537 2.23048 25.0536 3.13928C25.0536 3.74325 25.5432 4.23303 26.1473 4.23303C26.7513 4.23303 27.2411 3.74336 27.2411 3.13928C27.2411 2.87908 27.3419 2.66219 27.541 2.49441C27.7759 2.29644 28.1159 2.18739 28.4987 2.18739H28.4988C29.5164 2.18739 30.3444 3.01514 30.3444 4.03277C30.3444 4.72205 30.076 5.36998 29.5886 5.85736C29.1012 6.34462 28.4534 6.61303 27.7643 6.61303C27.7642 6.61303 27.7642 6.61303 27.7641 6.61303C27.7373 6.61303 27.711 6.61511 27.6848 6.61708C20.9084 6.78508 15.4474 12.3497 15.4473 19.1659C15.4473 22.4798 16.7388 25.4975 18.8441 27.7434C17.1239 28.5738 15.5867 29.7554 14.3361 31.2219C12.6659 33.1804 11.5801 35.564 11.1962 38.115C10.9599 39.6852 11.4185 41.276 12.4544 42.4795C12.6644 42.7235 12.8946 42.9452 13.1399 43.1455C11.791 43.9286 10.8472 45.2547 10.5502 46.7864C10.2524 48.322 10.6345 49.9093 11.5985 51.1412L13.9407 54.1343C14.887 55.3435 16.3246 55.9938 17.7826 55.9938C18.6104 55.9938 19.4449 55.7842 20.1998 55.3483C22.2846 54.1447 23.178 51.5534 22.278 49.3208L20.8571 45.7959C20.7621 45.5604 20.6499 45.3345 20.5247 45.1175H28.5469C29.151 45.1175 29.6406 44.6277 29.6406 44.0238C29.6406 43.4198 29.151 42.93 28.5469 42.93H18.4455V40.6243C18.4455 40.3273 18.687 40.0858 18.9839 40.0858H37.0162C37.3131 40.0858 37.5547 40.3273 37.5547 40.6243V43.0813C36.4695 43.6762 35.6127 44.6304 35.1429 45.7959L33.722 49.3207C32.8219 51.5534 33.7153 54.1447 35.8001 55.3483C36.5551 55.7842 37.3893 55.9938 38.2173 55.9938C39.6752 55.9938 41.113 55.3434 42.0593 54.1343L44.4015 51.1412C45.3656 49.9093 45.7476 48.3221 45.4498 46.7865ZM17.6347 19.166C17.6348 13.4506 22.2847 8.80075 28 8.80064C33.7153 8.80075 38.3653 13.4506 38.3654 19.166C38.3654 24.8814 33.7155 29.5312 28 29.5314C22.2846 29.5312 17.6347 24.8814 17.6347 19.166ZM18.8285 46.6138L20.2494 50.1388C20.7443 51.3668 20.2528 52.792 19.1062 53.4541C17.9597 54.1161 16.4795 53.8292 15.6635 52.7863L13.3212 49.7933C12.7478 49.0606 12.5205 48.1165 12.6977 47.203C12.8749 46.2895 13.4387 45.4987 14.2446 45.0334C15.0503 44.5681 16.0171 44.4755 16.8968 44.7786C17.7765 45.0819 18.4806 45.7509 18.8285 46.6138ZM37.0235 35.7109C36.4194 35.7109 35.9297 36.2007 35.9297 36.8047V37.8984H20.0775V36.8047C20.0775 36.2007 19.5879 35.7109 18.9838 35.7109C18.3797 35.7109 17.89 36.2007 17.89 36.8047V38.1282C16.9301 38.5505 16.2578 39.5102 16.2578 40.6244V42.1689C15.4295 42.0861 14.661 41.6899 14.1122 41.0525C13.4924 40.3322 13.218 39.3802 13.3593 38.4406C13.9855 34.2786 16.7605 30.8397 20.6564 29.34C22.7227 30.8355 25.26 31.7187 28 31.7187C30.7401 31.7187 33.2774 30.8355 35.3437 29.34C39.2395 30.8397 42.0146 34.2786 42.6407 38.4406C42.782 39.3802 42.5076 40.3322 41.8877 41.0525C41.3391 41.6899 40.5704 42.0861 39.7421 42.1689V40.6244C39.7421 39.513 39.0732 38.5555 38.1172 38.1315V36.8047C38.1172 36.2007 37.6275 35.7109 37.0235 35.7109ZM42.6788 49.7932L40.3366 52.7862C39.5206 53.8289 38.0406 54.1159 36.894 53.454C35.7473 52.7919 35.2558 51.3667 35.7509 50.1385L37.1718 46.6135C37.5197 45.7506 38.2237 45.0816 39.1034 44.7783C39.4441 44.661 39.7979 44.6029 40.1503 44.6029C40.7078 44.6029 41.2619 44.7483 41.7557 45.0333C42.5615 45.4986 43.1253 46.2894 43.3026 47.2029C43.4795 48.1164 43.2522 49.0605 42.6788 49.7932Z" fill="#EEA093"/>
<path d="M33.6645 43.2502C33.4611 43.0467 33.1789 42.9297 32.8912 42.9297C32.6036 42.9297 32.3214 43.0466 32.118 43.2502C31.9145 43.4537 31.7975 43.7358 31.7975 44.0234C31.7975 44.3122 31.9145 44.5933 32.118 44.7966C32.3214 45.0011 32.6036 45.1172 32.8912 45.1172C33.1789 45.1172 33.4611 45.0011 33.6645 44.7966C33.868 44.5933 33.985 44.3111 33.985 44.0234C33.985 43.7358 33.868 43.4536 33.6645 43.2502Z" fill="#EEA093"/>
<path d="M31.0155 22.9012C30.5462 22.5208 29.8575 22.5931 29.4771 23.0622C29.1137 23.5106 28.5752 23.7677 28 23.7677C27.4248 23.7677 26.8862 23.5105 26.5229 23.0622C26.1426 22.5928 25.4539 22.521 24.9845 22.9012C24.5152 23.2815 24.4431 23.9702 24.8235 24.4395C25.6043 25.4028 26.7621 25.9551 28 25.9551C29.2379 25.9551 30.3959 25.4027 31.1765 24.4395C31.5569 23.9702 31.4848 23.2815 31.0155 22.9012Z" fill="#EEA093"/>
<path d="M25.2362 18.3925C24.2441 17.4004 22.6297 17.4004 21.6373 18.3925C21.2102 18.8197 21.2101 19.5121 21.6373 19.9393C22.0644 20.3665 22.757 20.3665 23.1841 19.9394C23.3233 19.8002 23.5501 19.8002 23.6894 19.9394C23.903 20.1529 24.1829 20.2598 24.4628 20.2598C24.7427 20.2598 25.0227 20.1529 25.2362 19.9394C25.6633 19.5123 25.6633 18.8198 25.2362 18.3925Z" fill="#EEA093"/>
<path d="M34.3627 18.3925C33.3704 17.4004 31.756 17.4004 30.7638 18.3925C30.3367 18.8196 30.3367 19.5121 30.7638 19.9393C30.9773 20.153 31.2573 20.2597 31.5372 20.2597C31.8171 20.2597 32.0971 20.1528 32.3106 19.9393C32.4498 19.8002 32.6766 19.8 32.8159 19.9393C33.243 20.3666 33.9356 20.3665 34.3627 19.9392C34.7898 19.5121 34.7898 18.8197 34.3627 18.3925Z" fill="#EEA093"/>
</svg>
