<svg width="48" height="48" viewBox="0 0 48 48" fill="none" xmlns="http://www.w3.org/2000/svg">
<path d="M28 42.4C28.4418 42.4 28.8 42.0419 28.8 41.6C28.8 41.1582 28.4418 40.8 28 40.8C27.5582 40.8 27.2 41.1582 27.2 41.6C27.2 42.0419 27.5582 42.4 28 42.4Z" fill="#EEA093"/>
<path d="M31.2 42.4C31.6419 42.4 32 42.0419 32 41.6C32 41.1582 31.6419 40.8 31.2 40.8C30.7582 40.8 30.4 41.1582 30.4 41.6C30.4 42.0419 30.7582 42.4 31.2 42.4Z" fill="#EEA093"/>
<path d="M34.4 42.4C34.8419 42.4 35.2 42.0419 35.2 41.6C35.2 41.1582 34.8419 40.8 34.4 40.8C33.9582 40.8 33.6 41.1582 33.6 41.6C33.6 42.0419 33.9582 42.4 34.4 42.4Z" fill="#EEA093"/>
<path d="M26.4 27.2C26.8419 27.2 27.2 26.8418 27.2 26.4C27.2 25.9581 26.8419 25.6 26.4 25.6C25.9582 25.6 25.6 25.9581 25.6 26.4C25.6 26.8418 25.9582 27.2 26.4 27.2Z" fill="#EEA093"/>
<path d="M28 18.4C28.4418 18.4 28.8 18.0419 28.8 17.6C28.8 17.1582 28.4418 16.8 28 16.8C27.5582 16.8 27.2 17.1582 27.2 17.6C27.2 18.0419 27.5582 18.4 28 18.4Z" fill="#EEA093"/>
<path d="M31.2 18.4C31.6419 18.4 32 18.0419 32 17.6C32 17.1582 31.6419 16.8 31.2 16.8C30.7582 16.8 30.4 17.1582 30.4 17.6C30.4 18.0419 30.7582 18.4 31.2 18.4Z" fill="#EEA093"/>
<path d="M29.6 16.8C30.0418 16.8 30.4 16.4418 30.4 16C30.4 15.5581 30.0418 15.2 29.6 15.2C29.1582 15.2 28.8 15.5581 28.8 16C28.8 16.4418 29.1582 16.8 29.6 16.8Z" fill="#EEA093"/>
<path d="M31.2 15.2C31.6419 15.2 32 14.8418 32 14.4C32 13.9581 31.6419 13.6 31.2 13.6C30.7582 13.6 30.4 13.9581 30.4 14.4C30.4 14.8418 30.7582 15.2 31.2 15.2Z" fill="#EEA093"/>
<path d="M28 21.6C28.4418 21.6 28.8 21.2418 28.8 20.8C28.8 20.3582 28.4418 20 28 20C27.5582 20 27.2 20.3582 27.2 20.8C27.2 21.2418 27.5582 21.6 28 21.6Z" fill="#EEA093"/>
<path d="M26.4 20C26.8419 20 27.2 19.6419 27.2 19.2C27.2 18.7582 26.8419 18.4 26.4 18.4C25.9582 18.4 25.6 18.7582 25.6 19.2C25.6 19.6419 25.9582 20 26.4 20Z" fill="#EEA093"/>
<path d="M29.6 20C30.0418 20 30.4 19.6419 30.4 19.2C30.4 18.7582 30.0418 18.4 29.6 18.4C29.1582 18.4 28.8 18.7582 28.8 19.2C28.8 19.6419 29.1582 20 29.6 20Z" fill="#EEA093"/>
<path d="M26.4 29.6C26.8419 29.6 27.2 29.2418 27.2 28.8C27.2 28.3582 26.8419 28 26.4 28C25.9582 28 25.6 28.3582 25.6 28.8C25.6 29.2418 25.9582 29.6 26.4 29.6Z" fill="#EEA093"/>
<path d="M26.4 32C26.8419 32 27.2 31.6419 27.2 31.2C27.2 30.7582 26.8419 30.4 26.4 30.4C25.9582 30.4 25.6 30.7582 25.6 31.2C25.6 31.6419 25.9582 32 26.4 32Z" fill="#EEA093"/>
<path d="M26.4 34.4C26.8419 34.4 27.2 34.0419 27.2 33.6C27.2 33.1582 26.8419 32.8 26.4 32.8C25.9582 32.8 25.6 33.1582 25.6 33.6C25.6 34.0419 25.9582 34.4 26.4 34.4Z" fill="#EEA093"/>
<path d="M26.4 36.7999C26.8419 36.7999 27.2 36.4418 27.2 36C27.2 35.5581 26.8419 35.2 26.4 35.2C25.9582 35.2 25.6 35.5581 25.6 36C25.6 36.4418 25.9582 36.7999 26.4 36.7999Z" fill="#EEA093"/>
<path d="M26.4 39.2C26.8419 39.2 27.2 38.8418 27.2 38.4C27.2 37.9581 26.8419 37.6 26.4 37.6C25.9582 37.6 25.6 37.9581 25.6 38.4C25.6 38.8418 25.9582 39.2 26.4 39.2Z" fill="#EEA093"/>
<path d="M29.6 40.8C30.0418 40.8 30.4 40.4418 30.4 40C30.4 39.5581 30.0418 39.2 29.6 39.2C29.1582 39.2 28.8 39.5581 28.8 40C28.8 40.4418 29.1582 40.8 29.6 40.8Z" fill="#EEA093"/>
<path d="M32.8 40.8C33.2418 40.8 33.6 40.4418 33.6 40C33.6 39.5581 33.2418 39.2 32.8 39.2C32.3582 39.2 32 39.5581 32 40C32 40.4418 32.3582 40.8 32.8 40.8Z" fill="#EEA093"/>
<path d="M19.2 8.80005H15.2C14.7584 8.80005 14.4 9.15765 14.4 9.60005C14.4 10.0424 14.7584 10.4 15.2 10.4H19.2C19.6416 10.4 20 10.0424 20 9.60005C20 9.15765 19.6416 8.80005 19.2 8.80005Z" fill="#EEA093"/>
<path d="M19.2 14.4H11.2C10.7584 14.4 10.4 14.7576 10.4 15.2C10.4 15.6424 10.7584 16 11.2 16H19.2C19.6416 16 20 15.6424 20 15.2C20 14.7576 19.6416 14.4 19.2 14.4Z" fill="#EEA093"/>
<path d="M19.2 20H7.20002C6.75842 20 6.40002 20.3576 6.40002 20.8C6.40002 21.2424 6.75842 21.6 7.20002 21.6H19.2C19.6416 21.6 20 21.2424 20 20.8C20 20.3576 19.6416 20 19.2 20Z" fill="#EEA093"/>
<path d="M19.2 25.6H4.00001C3.55841 25.6 3.20001 25.9576 3.20001 26.4C3.20001 26.8424 3.55841 27.2 4.00001 27.2H19.2C19.6416 27.2 20 26.8424 20 26.4C20 25.9576 19.6416 25.6 19.2 25.6Z" fill="#EEA093"/>
<path d="M19.2 31.2H8.8C8.3584 31.2 8 31.5576 8 32C8 32.4424 8.3584 32.8 8.8 32.8H19.2C19.6416 32.8 20 32.4424 20 32C20 31.5576 19.6416 31.2 19.2 31.2Z" fill="#EEA093"/>
<path d="M19.2 36.8H13.6C13.1584 36.8 12.8 37.1576 12.8 37.6C12.8 38.0425 13.1584 38.4001 13.6 38.4001H19.2C19.6416 38.4001 20 38.0425 20 37.6C20 37.1576 19.6416 36.8 19.2 36.8Z" fill="#EEA093"/>
<path d="M42.4 43.2H38.4V38.4C38.4 32.3272 35.0824 26.848 29.8288 24C35.0824 21.152 38.4 15.6728 38.4 9.6V4.8H42.4C43.7232 4.8 44.8 3.7232 44.8 2.4C44.8 1.0768 43.7232 0 42.4 0H24C23.5584 0 23.2 0.3576 23.2 0.8C23.2 1.2424 23.5584 1.6 24 1.6H42.4C42.8408 1.6 43.2 1.9584 43.2 2.4C43.2 2.8416 42.8408 3.2 42.4 3.2H38.4H24C23.5584 3.2 23.2 3.5576 23.2 4C23.2 4.4424 23.5584 4.8 24 4.8H36.8V9.6C36.8 15.5928 33.2264 20.9544 27.6952 23.26C27.6944 23.26 27.6944 23.26 27.6936 23.2608C27.6936 23.2608 27.6928 23.2616 27.692 23.2616C27.6832 23.2656 27.6776 23.2728 27.6688 23.2776C27.5832 23.3168 27.5024 23.368 27.4344 23.436C27.3784 23.492 27.3408 23.56 27.3048 23.6288C27.292 23.652 27.272 23.668 27.2616 23.6928C27.2616 23.6936 27.2616 23.6944 27.2616 23.6944C27.2216 23.7912 27.2008 23.8952 27.2008 24.0008C27.2008 24.1064 27.2216 24.2104 27.2608 24.3064C27.2608 24.3064 27.2608 24.308 27.2616 24.3088C27.2984 24.3976 27.3528 24.4728 27.4152 24.54C27.4328 24.5584 27.4528 24.5728 27.472 24.5904C27.5272 24.64 27.5864 24.68 27.652 24.712C27.6672 24.7192 27.6768 24.7328 27.6928 24.7392C33.2248 27.044 36.8 32.4064 36.8 38.4V43.2C36.8 42.7584 36.4416 42.4 36 42.4C35.5584 42.4 35.2 42.7584 35.2 43.2H33.6C33.6 42.7584 33.2416 42.4 32.8 42.4C32.3584 42.4 32 42.7584 32 43.2H30.4C30.4 42.7584 30.0416 42.4 29.6 42.4C29.1584 42.4 28.8 42.7584 28.8 43.2H27.2C27.2 42.7584 26.8416 42.4 26.4 42.4C25.9584 42.4 25.6 42.7584 25.6 43.2H24C23.5584 43.2 23.2 43.5576 23.2 44C23.2 44.4424 23.5584 44.8 24 44.8H38.4H42.4C42.8408 44.8 43.2 45.1584 43.2 45.6C43.2 46.0416 42.8408 46.4 42.4 46.4H24C23.5584 46.4 23.2 46.7576 23.2 47.2C23.2 47.6424 23.5584 48 24 48H42.4C43.7232 48 44.8 46.9232 44.8 45.6C44.8 44.2768 43.7232 43.2 42.4 43.2Z" fill="#EEA093"/>
</svg>
