<svg width="51" height="51" viewBox="0 0 51 51" fill="none" xmlns="http://www.w3.org/2000/svg">
<path d="M11.1562 47.6681C12.9165 47.6681 14.3438 46.2413 14.3438 44.4806C14.3438 42.7203 12.9165 41.2931 11.1562 41.2931C9.39597 41.2931 7.96875 42.7203 7.96875 44.4806C7.96875 46.2413 9.39597 47.6681 11.1562 47.6681ZM11.1562 42.8868C12.0364 42.8868 12.75 43.6004 12.75 44.4806C12.75 45.3607 12.0364 46.0743 11.1562 46.0743C10.2761 46.0743 9.5625 45.3607 9.5625 44.4806C9.5625 43.6004 10.2761 42.8868 11.1562 42.8868Z" fill="#EEA093"/>
<path d="M46.2188 49.2619V20.1386L25.5 6.87849L7.62051 18.3211L7.19639 15.1336C8.09715 14.6044 8.80103 13.7967 9.20142 12.8321L25.5 2.39607L49.7736 17.9305L50.6327 16.59L25.5 0.503494L9.5481 10.7154C9.39519 5.83221 5.56139 1.14201 5.39486 0.941231L4.78125 0.199219L4.16842 0.942787C3.99644 1.14901 0 6.05166 0 11.0119C0.0027237 12.7072 0.90271 14.2745 2.36611 15.1309L0.803879 26.8451L0.796875 50.8556H2.39062V27.7463H7.17188V37.38L5.91431 38.1056H3.98438V50.8556H42.2344V38.1056H40.5188L38.3586 30.07L36.6562 30.526V18.9806H14.3438V33.2392L8.76562 36.4601V26.9494L7.85163 20.0655L25.5 8.77029L44.625 21.0106V50.8556H51V49.2619H46.2188ZM2.50385 26.1525L3.89683 15.7079C4.48087 15.8215 5.08163 15.8215 5.66567 15.7079L7.05865 26.1525H2.50385ZM5.57812 14.0862V11.0119H3.98438V14.0862C2.58128 13.7239 1.5992 12.4609 1.59375 11.0119C1.59375 7.72906 3.70617 4.30772 4.78125 2.77934C5.85867 4.30305 7.96875 7.71233 7.96875 11.0119C7.9633 12.4609 6.98122 13.7239 5.57812 14.0862ZM24.7031 49.2619H18.3281V39.6994H24.7031V49.2619ZM32.6719 49.2619H26.2969V39.6994H32.6719V49.2619ZM40.6406 39.6994V49.2619H34.2656V39.6994H40.6406ZM37.2333 32.0217L38.8683 38.1056H14.5367L37.2333 32.0217ZM26.2969 20.5744H35.0625V28.2595L32.0392 23.0242L26.2969 26.3393V20.5744ZM15.9375 20.5744H24.7031V26.9494H15.9375V20.5744ZM15.9375 28.5431H22.4783L15.9375 32.3197V28.5431ZM31.4559 25.2012L34.8154 31.0182L9.72748 37.7457L31.4559 25.2012ZM16.7344 39.6994V49.2619H5.57812V39.6994H16.7344Z" fill="#EEA093"/>
</svg>
