<svg width="52" height="52" viewBox="0 0 52 52" fill="none" xmlns="http://www.w3.org/2000/svg">
<path d="M50.9844 2.74219H26C25.4391 2.74219 24.9844 3.19698 24.9844 3.75781V19.9839C24.9844 20.5448 25.4391 20.9996 26 20.9996C26.5609 20.9996 27.0156 20.5448 27.0156 19.9839V4.77344H49.9688V47.2266H27.0156V28.7422C27.0156 28.1814 26.5609 27.7266 26 27.7266C25.4391 27.7266 24.9844 28.1814 24.9844 28.7422V48.2422C24.9844 48.803 25.4391 49.2578 26 49.2578H50.9844C51.5453 49.2578 52 48.803 52 48.2422V3.75781C52 3.19698 51.5453 2.74219 50.9844 2.74219Z" fill="#EEA093"/>
<path d="M26.718 23.4538C26.5291 23.2648 26.2671 23.1562 26 23.1562C25.7329 23.1562 25.4709 23.2649 25.282 23.4538C25.093 23.6427 24.9844 23.9048 24.9844 24.1719C24.9844 24.439 25.093 24.701 25.282 24.8898C25.4709 25.0788 25.7329 25.1875 26 25.1875C26.2671 25.1875 26.5291 25.0788 26.718 24.8898C26.907 24.701 27.0156 24.439 27.0156 24.1719C27.0156 23.9048 26.907 23.6428 26.718 23.4538Z" fill="#EEA093"/>
<path d="M47.0234 6.80469H29.9609C29.4 6.80469 28.9453 7.25948 28.9453 7.82031V44.1797C28.9453 44.7405 29.4 45.1953 29.9609 45.1953H47.0234C47.5844 45.1953 48.0391 44.7405 48.0391 44.1797V7.82031C48.0391 7.25948 47.5844 6.80469 47.0234 6.80469ZM46.0078 43.1641H30.9766V8.83594H46.0078V43.1641Z" fill="#EEA093"/>
<path d="M20.5156 2.74219H1.01562C0.454695 2.74219 0 3.19698 0 3.75781V23.2578C0 23.8186 0.454695 24.2734 1.01562 24.2734H20.5156C21.0766 24.2734 21.5312 23.8186 21.5312 23.2578V3.75781C21.5312 3.19698 21.0766 2.74219 20.5156 2.74219ZM19.5 22.2422H2.03125V4.77344H19.5V22.2422Z" fill="#EEA093"/>
<path d="M16.4531 6.80469H5.07812C4.5172 6.80469 4.0625 7.25948 4.0625 7.82031V19.1953C4.0625 19.7561 4.5172 20.2109 5.07812 20.2109H16.4531C17.0141 20.2109 17.4688 19.7561 17.4688 19.1953V7.82031C17.4688 7.25948 17.0141 6.80469 16.4531 6.80469ZM15.4375 18.1797H6.09375V8.83594H15.4375V18.1797Z" fill="#EEA093"/>
<path d="M16.4531 31.7891H5.07812C4.5172 31.7891 4.0625 32.2439 4.0625 32.8047V44.1797C4.0625 44.7405 4.5172 45.1953 5.07812 45.1953H16.4531C17.0141 45.1953 17.4688 44.7405 17.4688 44.1797V32.8047C17.4688 32.2439 17.0141 31.7891 16.4531 31.7891ZM15.4375 43.1641H6.09375V33.8203H15.4375V43.1641Z" fill="#EEA093"/>
<path d="M11.7884 28.0241C11.5995 27.8351 11.3374 27.7266 11.0703 27.7266C10.8032 27.7266 10.5412 27.8352 10.3523 28.0241C10.1634 28.213 10.0547 28.4751 10.0547 28.7422C10.0547 29.0093 10.1634 29.2713 10.3523 29.4601C10.5412 29.6491 10.8032 29.7578 11.0703 29.7578C11.3374 29.7578 11.5995 29.6491 11.7884 29.4601C11.9773 29.2713 12.0859 29.0093 12.0859 28.7422C12.0859 28.4751 11.9773 28.2131 11.7884 28.0241Z" fill="#EEA093"/>
<path d="M20.5156 27.7266H15.3359C14.775 27.7266 14.3203 28.1814 14.3203 28.7422C14.3203 29.303 14.775 29.7578 15.3359 29.7578H19.5V47.2266H2.03125V29.7578H6.39844C6.95937 29.7578 7.41406 29.303 7.41406 28.7422C7.41406 28.1814 6.95937 27.7266 6.39844 27.7266H1.01562C0.454695 27.7266 0 28.1814 0 28.7422V48.2422C0 48.803 0.454695 49.2578 1.01562 49.2578H20.5156C21.0766 49.2578 21.5312 48.803 21.5312 48.2422V28.7422C21.5312 28.1814 21.0766 27.7266 20.5156 27.7266Z" fill="#EEA093"/>
<path d="M43.9475 24.422L39.4099 15.8981C39.3958 15.8682 39.3802 15.839 39.3629 15.8104C39.1793 15.5047 38.8477 15.3176 38.4911 15.3176C38.1345 15.3176 37.804 15.5047 37.6204 15.8104C37.6 15.8444 37.5817 15.8793 37.5656 15.9148L33.037 24.422C32.3789 25.658 32.1499 27.0983 32.3919 28.4775C32.8537 31.1084 34.8925 33.1106 37.4365 33.5868V35.6667C37.4365 36.2275 37.8911 36.6823 38.4521 36.6823C39.013 36.6823 39.4677 36.2275 39.4677 35.6667V33.6024C42.0492 33.1538 44.126 31.1361 44.5927 28.4775C44.8346 27.0982 44.6054 25.658 43.9475 24.422ZM37.4362 31.5023C35.8895 31.0646 34.6825 29.7783 34.3925 28.1264C34.2834 27.5048 34.3162 26.8652 34.481 26.2599L37.4362 29.2151V31.5023ZM37.4363 26.3424L35.3998 24.3059L37.4363 20.4802V26.3424ZM39.4676 20.3291L41.5566 24.2534L39.4676 26.3424V20.3291ZM42.5919 28.1264C42.2969 29.8068 41.0529 31.109 39.4676 31.5243V29.2152L42.4864 26.1964C42.6665 26.8202 42.7048 27.4831 42.5919 28.1264Z" fill="#EEA093"/>
</svg>
